<?xml version="1.0" standalone="no"?>
<!DOCTYPE svg PUBLIC "-//W3C//DTD SVG 20010904//EN"
 "http://www.w3.org/TR/2001/REC-SVG-20010904/DTD/svg10.dtd">
<svg version="1.0" xmlns="http://www.w3.org/2000/svg"
 width="500.000000pt" height="500.000000pt" viewBox="0 0 500.000000 500.000000"
 preserveAspectRatio="xMidYMid meet">

<g transform="translate(0.000000,500.000000) scale(0.100000,-0.100000)"
fill="#000000" stroke="none">
<path d="M2700 3980 c0 -70 0 -70 28 -71 15 0 42 -2 61 -5 27 -3 32 -1 27 12
-5 12 -1 14 17 10 12 -3 16 -3 10 0 -7 3 -13 13 -13 22 0 15 -2 15 -10 2 -8
-13 -10 -13 -10 2 0 9 -3 25 -6 35 -5 15 -4 15 5 3 9 -13 11 -13 11 2 0 9 -8
19 -17 21 -11 3 -6 5 12 7 29 2 30 2 5 9 -14 4 -46 11 -72 14 l-48 7 0 -70z"/>
<path d="M2535 4034 c-11 -3 -47 -9 -80 -15 -249 -46 -474 -153 -634 -301
l-62 -58 94 0 c82 0 99 3 129 24 78 53 177 107 248 135 95 37 259 81 306 81
24 0 33 4 28 12 -5 8 -2 9 9 5 10 -3 17 -2 17 3 0 6 -11 10 -25 10 -23 0 -24
2 -15 20 9 16 8 20 -7 21 -13 0 -12 3 7 11 14 6 28 10 33 10 4 -1 7 2 7 7 0 5
-10 12 -22 14 l-23 4 23 2 c12 0 22 6 22 11 0 10 -18 11 -55 4z"/>
<path d="M2566 3953 c-6 -14 -5 -15 5 -6 7 7 10 15 7 18 -3 3 -9 -2 -12 -12z"/>
<path d="M1475 3195 l0 -345 378 0 377 0 0 -422 0 -423 140 -145 140 -145 0
-81 c0 -97 7 -108 95 -154 33 -18 67 -38 76 -46 8 -8 23 -14 32 -14 26 0 145
83 151 105 3 11 6 56 6 100 l0 80 137 142 137 142 -3 433 -3 433 387 -4 387
-3 -7 93 c-8 121 -13 148 -26 128 -6 -10 -9 -3 -9 25 0 29 -3 37 -14 33 -8 -3
-17 1 -20 9 -3 9 -1 12 4 9 6 -3 10 3 10 14 0 15 -8 21 -32 24 -18 3 -7 4 25
3 l57 -2 0 64 c0 40 -4 61 -10 57 -6 -3 -14 4 -19 17 -6 13 -10 19 -10 15 -1
-5 -7 -2 -14 5 -19 19 -29 76 -17 99 9 16 8 17 -7 12 -15 -6 -16 -4 -6 9 7 8
10 18 6 22 -16 16 -10 36 10 37 21 0 21 1 2 9 -11 5 -546 9 -1190 9 l-1170 1
0 -345z m2339 274 c-6 -11 -31 -12 -37 -1 -3 4 6 8 19 8 13 1 21 -2 18 -7z
m-1 -36 c-2 -7 -5 -40 -7 -75 l-4 -63 -514 -3 -513 -2 -3 -820 c-2 -452 -7
-833 -11 -847 -4 -14 -15 -27 -24 -29 -9 -1 -34 -5 -55 -9 -28 -4 -42 -2 -51
9 -14 16 -19 359 -20 1244 l-1 452 -447 1 c-247 1 -477 5 -513 9 -36 4 -57 8
-46 8 15 2 16 4 6 17 -11 13 -15 13 -21 3 -5 -8 -8 7 -8 37 1 30 4 42 7 30 5
-13 17 -21 37 -22 l30 -2 -37 35 c-21 19 -38 36 -38 39 0 3 503 4 1118 3 861
-2 1116 -6 1115 -15z m-149 -323 l149 0 -7 -77 c-4 -43 -9 -79 -11 -82 -3 -2
-174 -4 -380 -5 l-376 -1 2 -458 1 -459 -72 -79 c-39 -43 -76 -79 -81 -79 -5
0 -9 243 -9 620 l0 620 283 3 c155 2 298 2 317 0 19 -1 102 -3 184 -3z m-1154
-632 l0 -631 -26 24 c-46 43 -88 100 -68 92 11 -4 2 11 -20 35 -22 23 -42 42
-44 42 -3 0 7 -15 24 -32 l29 -33 -33 29 c-19 18 -31 38 -31 50 1 12 1 215 1
452 l-2 432 -202 6 c-112 4 -259 7 -327 9 -101 2 -125 5 -128 17 -4 13 -3 13
7 0 10 -13 11 -13 7 0 -2 9 -18 16 -39 18 -35 3 -36 4 -28 33 8 26 7 30 -6 25
-9 -4 -12 -2 -8 5 3 6 -3 17 -15 25 -12 8 -21 19 -21 25 0 5 180 9 465 9 l465
0 0 -632z"/>
<path d="M1629 3327 c5 -5 19 -7 32 -5 20 3 19 5 -9 9 -20 3 -29 2 -23 -4z"/>
<path d="M802 3418 c-18 -18 -15 -66 6 -77 21 -11 144 -2 136 10 -2 4 2 24 10
44 l15 35 -78 0 c-46 0 -82 -5 -89 -12z"/>
<path d="M906 3164 c-19 -19 -20 -43 -2 -66 10 -14 28 -18 79 -18 72 0 78 5
97 71 l9 29 -84 0 c-63 0 -88 -4 -99 -16z"/>
<path d="M1380 3114 c0 -14 4 -23 9 -20 5 3 7 15 4 26 -7 28 -13 25 -13 -6z"/>
<path d="M1139 2914 c-11 -13 -11 -20 2 -42 15 -27 16 -27 136 -30 l121 -3 4
46 3 45 -126 0 c-104 0 -129 -3 -140 -16z"/>
<path d="M786 2894 c-12 -32 13 -45 83 -42 63 3 66 4 66 28 0 24 -3 25 -71 28
-59 2 -73 0 -78 -14z"/>
<path d="M1955 2706 c-69 -30 -93 -100 -56 -160 28 -44 76 -62 125 -46 66 22
97 81 76 145 -9 29 -22 41 -54 56 -49 22 -52 22 -91 5z m73 -68 c17 -17 15
-48 -5 -70 -20 -22 -31 -23 -55 -1 -34 31 -17 83 27 83 12 0 26 -5 33 -12z"/>
<path d="M3328 2691 c-36 -29 -54 -83 -38 -121 25 -60 79 -89 135 -70 73 24
101 118 52 176 -32 37 -110 45 -149 15z m108 -66 c15 -23 15 -27 0 -50 -9 -14
-22 -25 -29 -25 -24 0 -57 31 -57 54 0 49 58 64 86 21z"/>
<path d="M1345 2671 c-105 -6 -110 -7 -113 -29 -7 -48 13 -55 125 -48 117 7
109 13 137 -94 85 -314 316 -611 605 -779 80 -47 252 -121 298 -128 29 -5 33
-3 33 16 0 12 -5 32 -11 44 -21 41 -114 117 -194 159 -250 131 -410 287 -523
513 -38 76 -83 207 -97 285 -14 73 -10 70 -83 68 -37 -1 -116 -4 -177 -7z"/>
<path d="M3753 2554 c8 -14 -34 -129 -83 -226 -116 -231 -287 -402 -516 -516
-81 -41 -194 -154 -194 -196 0 -25 3 -28 26 -22 51 13 209 86 286 133 163 98
319 244 413 383 59 89 118 208 111 226 -3 8 -2 12 3 9 5 -3 12 -1 16 5 3 5 1
10 -5 10 -7 0 -10 7 -6 15 6 17 -3 47 -13 41 -10 -6 -12 76 -1 88 5 7 6 16 2
21 -10 15 -47 42 -39 29z"/>
</g>
</svg>
